<svg xmlns="http://www.w3.org/2000/svg" width="900" height="900" viewBox="0 0 800 800" role="img" aria-labelledby="title">
  <title id="title">Prism Crystal Chandelier off</title>
  <defs>
    <radialGradient id="bg" cx="50%" cy="35%" r="75%"><stop offset="0" stop-color="#ffffff"/><stop offset=".55" stop-color="#f8f4ed"/><stop offset="1" stop-color="#e8ded0"/></radialGradient>
    <filter id="blur"><feGaussianBlur stdDeviation="28"/></filter>
    <filter id="softGlow" x="-80%" y="-80%" width="260%" height="260%"><feGaussianBlur stdDeviation="16" result="b"/><feMerge><feMergeNode in="b"/><feMergeNode in="SourceGraphic"/></feMerge></filter>
    <filter id="grain"><feTurbulence type="fractalNoise" baseFrequency=".8" numOctaves="2" stitchTiles="stitch"/><feColorMatrix type="saturate" values="0"/><feComponentTransfer><feFuncA type="table" tableValues="0 .05"/></feComponentTransfer></filter>
  </defs>
  <rect width="800" height="800" fill="url(#bg)"/>
  <rect width="800" height="800" fill="#000" opacity="0"/>
  <ellipse cx="400" cy="690" rx="265" ry="58" fill="#ded2c0" opacity=".95"/>
  <ellipse cx="400" cy="155" rx="140" ry="30" fill="#acb4bc"/><line x1="400" y1="170" x2="400" y2="270" stroke="#acb4bc" stroke-width="8"/><ellipse cx="400" cy="300" rx="185" ry="36" fill="#cfd7df"/><line x1="310" y1="310" x2="310" y2="505" stroke="#acb4bc" stroke-width="4"/><path d="M286 505 L310 565 L334 505 Z" fill="#dce4ec" opacity=".5" /><line x1="355" y1="310" x2="355" y2="505" stroke="#acb4bc" stroke-width="4"/><path d="M331 505 L355 565 L379 505 Z" fill="#dce4ec" opacity=".5" /><line x1="400" y1="310" x2="400" y2="505" stroke="#acb4bc" stroke-width="4"/><path d="M376 505 L400 565 L424 505 Z" fill="#dce4ec" opacity=".5" /><line x1="445" y1="310" x2="445" y2="505" stroke="#acb4bc" stroke-width="4"/><path d="M421 505 L445 565 L469 505 Z" fill="#dce4ec" opacity=".5" /><line x1="490" y1="310" x2="490" y2="505" stroke="#acb4bc" stroke-width="4"/><path d="M466 505 L490 565 L514 505 Z" fill="#dce4ec" opacity=".5" />
  <rect width="800" height="800" filter="url(#grain)" opacity=".35"/>
</svg>
